<svg x="0" y="0" xmlns="http://www.w3.org/2000/svg" xmlns:xlink="http://www.w3.org/1999/xlink" viewBox="0 0 500 100">
  <defs>
    <path id="reuse-0" fill="url(#c)" d="M0 30.76 57.6 0l57.6 30.76v70.984l-57.6 31.943L0 101.744Z" />
    <path id="reuse-1" fill="url(#d)" d="M0 30.76 57.6 0l57.6 30.76v70.984l-57.6 31.943L0 101.744Z" />
    <path id="reuse-2" fill="url(#e)" d="M0 31.943 57.6 0v70.984L0 102.927Z" />
    <path id="reuse-3" fill="url(#f)" d="m0 0 57.6 39.041L0 70.984Z" />
    <path id="reuse-4" fill="url(#g)" d="M0 31.943-57.6 0v70.984L0 102.927Z" />
    <path id="reuse-5" fill="url(#g)" d="m0 0-57.6 39.041L0 70.984Z" />
    <path id="reuse-6" fill="url(#c)" d="M0 30.421 56.751 0 113.5 30.421v70.2l-56.749 31.592L0 100.622Z" />
    <path id="reuse-7" fill="url(#d)" d="M0 30.421 56.751 0 113.5 30.421v70.2l-56.749 31.592L0 100.622Z" />
    <path id="reuse-8" fill="url(#e)" d="M0 31.591 56.751 0v70.2L0 101.792Z" />
    <path id="reuse-9" fill="url(#f)" d="m0 0 56.751 38.611L0 70.2Z" />
    <path id="reuse-10" fill="url(#g)" d="M0 31.591-56.751 0v70.2L0 101.792Z" />
    <path id="reuse-11" fill="url(#g)" d="m0 0-56.751 38.611L0 70.2Z" />
  </defs>
  <defs>
    <linearGradient id="c" x1=".5" x2=".5" y2="1" gradientUnits="objectBoundingBox">
      <stop offset="0" stop-color="#fff" />
      <stop offset="1" stop-color="#f7fbff" />
    </linearGradient>
    <linearGradient id="d" x1=".5" x2=".5" y2="1" gradientUnits="objectBoundingBox">
      <stop offset="0" stop-color="#d0deea" />
      <stop offset="1" stop-color="#dae1e8" />
    </linearGradient>
    <linearGradient id="e" x1=".5" x2=".5" y2="1" gradientUnits="objectBoundingBox">
      <stop offset="0" stop-color="#bdc2c8" />
      <stop offset="1" stop-color="#dcedef" />
    </linearGradient>
    <linearGradient id="f" x1=".5" x2=".5" y2="1" gradientUnits="objectBoundingBox">
      <stop offset="0" stop-color="#adbbca" stop-opacity=".702" />
      <stop offset="1" stop-color="#e4e8e9" stop-opacity="0" />
    </linearGradient>
    <linearGradient id="g" x1=".5" x2=".5" y2="1" gradientUnits="objectBoundingBox">
      <stop offset="0" stop-color="#7692ae" />
      <stop offset="1" stop-color="#93b0ce" />
    </linearGradient>
    <radialGradient id="b" cx="-.061" cy="-.082" r="1.895" gradientUnits="objectBoundingBox">
      <stop offset="0" stop-color="#002c69" />
      <stop offset=".748" stop-color="#20569a" />
      <stop offset="1" stop-color="#28abd8" />
    </radialGradient>
    <clipPath id="a">
      <path d="M0 0h500v100H0z" />
    </clipPath>
  </defs>
  <g clip-path="url(#a)">
    <path fill="url(#b)" d="M0 0h502v150H0z" transform="translate(0 -3)" />
    <g opacity=".3" style="mix-blend-mode: color-burn; isolation: isolate">
      <g>
        <g>
          <use xlink:href="#reuse-0" transform="translate(115.645 -71.225)" />
          <g opacity=".237">
            <g>
              <use xlink:href="#reuse-1" transform="translate(115.645 -71.225)" />
              <use xlink:href="#reuse-2" transform="translate(173.246 -40.465)" />
              <use xlink:href="#reuse-2" transform="translate(173.246 -40.465)" />
              <use xlink:href="#reuse-3" transform="translate(173.246 -8.522)" />
              <use xlink:href="#reuse-4" transform="translate(173.246 -40.465)" />
              <use xlink:href="#reuse-5" transform="translate(173.246 -8.522)" />
            </g>
          </g>
        </g>
        <g>
          <use xlink:href="#reuse-0" transform="translate(170.686 -40.374)" />
          <g opacity=".237">
            <g>
              <use xlink:href="#reuse-1" transform="translate(170.686 -40.374)" />
              <use xlink:href="#reuse-2" transform="translate(228.287 -9.614)" />
              <use xlink:href="#reuse-2" transform="translate(228.287 -9.614)" />
              <use xlink:href="#reuse-3" transform="translate(228.287 22.329)" />
              <use xlink:href="#reuse-4" transform="translate(228.287 -9.614)" />
              <use xlink:href="#reuse-5" transform="translate(228.287 22.329)" />
            </g>
          </g>
        </g>
        <g>
          <use xlink:href="#reuse-0" transform="translate(228.287 -8.517)" />
          <g opacity=".237">
            <g>
              <use xlink:href="#reuse-1" transform="translate(228.287 -8.517)" />
              <use xlink:href="#reuse-2" transform="translate(285.888 22.243)" />
              <use xlink:href="#reuse-2" transform="translate(285.888 22.243)" />
              <use xlink:href="#reuse-3" transform="translate(285.888 54.186)" />
              <use xlink:href="#reuse-4" transform="translate(285.888 22.243)" />
              <use xlink:href="#reuse-5" transform="translate(285.888 54.186)" />
            </g>
          </g>
        </g>
        <g>
          <use xlink:href="#reuse-0" transform="translate(170.686 93.313)" />
          <g opacity=".237">
            <g>
              <use xlink:href="#reuse-1" transform="translate(170.686 93.313)" />
              <use xlink:href="#reuse-2" transform="translate(228.287 124.073)" />
              <use xlink:href="#reuse-2" transform="translate(228.287 124.073)" />
              <use xlink:href="#reuse-3" transform="translate(228.287 156.016)" />
              <use xlink:href="#reuse-4" transform="translate(228.287 124.073)" />
              <use xlink:href="#reuse-5" transform="translate(228.287 156.016)" />
            </g>
          </g>
        </g>
        <g>
          <use xlink:href="#reuse-0" transform="translate(0 -.822)" />
          <g opacity=".237">
            <g>
              <use xlink:href="#reuse-1" transform="translate(0 -.822)" />
              <use xlink:href="#reuse-2" transform="translate(57.601 29.938)" />
              <use xlink:href="#reuse-2" transform="translate(57.601 29.938)" />
              <use xlink:href="#reuse-3" transform="translate(57.601 61.881)" />
              <use xlink:href="#reuse-4" transform="translate(57.601 29.938)" />
              <use xlink:href="#reuse-5" transform="translate(57.601 61.881)" />
            </g>
          </g>
        </g>
      </g>
      <g>
        <use xlink:href="#reuse-6" transform="translate(341.499 -9.592)" />
        <g opacity=".237">
          <g>
            <use xlink:href="#reuse-7" transform="translate(341.499 -9.592)" />
            <use xlink:href="#reuse-8" transform="translate(398.25 20.829)" />
            <use xlink:href="#reuse-8" transform="translate(398.25 20.829)" />
            <use xlink:href="#reuse-9" transform="translate(398.25 52.419)" />
            <use xlink:href="#reuse-10" transform="translate(398.25 20.829)" />
            <use xlink:href="#reuse-11" transform="translate(398.25 52.419)" />
          </g>
        </g>
      </g>
      <g>
        <use xlink:href="#reuse-6" transform="translate(284.748 -109)" />
        <g opacity=".237">
          <g>
            <use xlink:href="#reuse-7" transform="translate(284.748 -109)" />
            <use xlink:href="#reuse-8" transform="translate(341.499 -78.579)" />
            <use xlink:href="#reuse-8" transform="translate(341.499 -78.579)" />
            <use xlink:href="#reuse-9" transform="translate(341.499 -46.989)" />
            <use xlink:href="#reuse-10" transform="translate(341.499 -78.579)" />
            <use xlink:href="#reuse-11" transform="translate(341.499 -46.989)" />
          </g>
        </g>
      </g>
    </g>
  </g>
</svg>