<svg xmlns="http://www.w3.org/2000/svg" viewBox="0 0 192 38.575">
  <defs>
    <linearGradient id="logo-a" x1="-.061" x2=".914" y1="2.499" y2="1.52" gradientUnits="objectBoundingBox">
      <stop offset=".1" stop-color="#76b3e1" />
      <stop offset=".3" stop-color="#dcf2fd" />
      <stop offset="1" stop-color="#76b3e1" />
    </linearGradient>
    <linearGradient id="logo-b" x1=".571" x2=".381" y1="1.757" y2=".412" gradientUnits="objectBoundingBox">
      <stop offset="0" stop-color="#76b3e1" />
      <stop offset=".5" stop-color="#4377bb" />
      <stop offset="1" stop-color="#1f3b77" />
    </linearGradient>
    <linearGradient id="logo-c" x1=".107" x2="1.045" y1=".443" y2="-.683" gradientUnits="objectBoundingBox">
      <stop offset="0" stop-color="#315aa9" />
      <stop offset=".5" stop-color="#518ac8" />
      <stop offset="1" stop-color="#315aa9" />
    </linearGradient>
    <linearGradient id="logo-d" x1=".621" x2=".178" y1="-.213" y2="-3.668" gradientUnits="objectBoundingBox">
      <stop offset="0" stop-color="#4377bb" />
      <stop offset=".5" stop-color="#1a336b" />
      <stop offset="1" stop-color="#1a336b" />
    </linearGradient>
  </defs>
  <g>
    <path fill="#76b3e1" d="M41.354 8.299S27.646-2.052 17.009.366l-.934.258a6.785 6.785 0 0 0-3.615 2.538 6.142 6.142 0 0 0-.39.648l-3.928 6.676 6.785 1.324a12.087 12.087 0 0 0 9.675 1.9l12.087 2.362Z" />
    <path fill="url(#logo-a)" d="M48.572 8.543S34.864-1.808 24.227.61l-.934.258a6.785 6.785 0 0 0-3.615 2.538 6.142 6.142 0 0 0-.39.648L15.36 10.73l6.785 1.324a12.087 12.087 0 0 0 9.675 1.9l12.087 2.362Z" opacity=".3" style="isolation:isolate" transform="translate(-7.218 -.244)" />
    <path fill="#518ac8" d="m12.339 8.167-.939.264c-4.34 1.4-5.824 5.461-3.329 9.021a11.6 11.6 0 0 0 12.383 3.906l16.219-5.28S22.992 5.75 12.339 8.167Z" />
    <path fill="url(#logo-b)" d="m18.506 14.809-.939.264c-4.34 1.4-5.824 5.461-3.329 9.021A11.6 11.6 0 0 0 26.621 28l16.219-5.28s-13.681-10.328-24.334-7.911Z" opacity=".3" style="isolation:isolate" transform="translate(-6.167 -6.642)" />
    <path fill="url(#logo-c)" d="M34.246 32.8a11.6 11.6 0 0 0-12.406-3.928l-16.2 5.252L.54 43.2l29.025 4.945 5.2-9.258a5.5 5.5 0 0 0-.522-6.087Z" transform="translate(-.54 -12.928)" />
    <path fill="url(#logo-d)" d="M29.148 49.331A11.615 11.615 0 0 0 16.77 45.4L.54 50.655s13.735 10.351 24.344 7.933l.934-.258c4.346-1.379 5.829-5.439 3.329-9Z" transform="translate(-.54 -20.379)" />
    <path fill="#fff" d="M59.979 24.589a6.593 6.593 0 0 0 4.45 1.868c1.868 0 3.406-1.1 3.406-2.967 0-4.285-8.516-3.242-8.516-8.516 0-2.472 2.2-4.56 5.329-4.56a6.593 6.593 0 0 1 4.56 1.648l-.83 1.428a5.7 5.7 0 0 0-3.736-1.483c-2.2 0-3.571 1.428-3.626 2.912 0 4.066 8.516 2.912 8.516 8.516 0 2.527-1.978 4.615-5.164 4.615a7.34 7.34 0 0 1-5.384-2.2Zm26.976-14.065a8.642 8.642 0 0 1 8.681 8.736 8.791 8.791 0 0 1-8.681 8.9H86.9a8.791 8.791 0 0 1-8.681-8.9v-.055a8.642 8.642 0 0 1 8.736-8.681Zm-.055 16.1a7.142 7.142 0 0 0 6.978-7.3v-.06a6.953 6.953 0 1 0-13.9-.055 7.153 7.153 0 0 0 6.922 7.413Zm18.625-15.77h1.648l-.055 15.548h7.912v1.483h-9.615Zm18.625.055h1.648l-.055 17.087h-1.648Zm12.746 0h5.494c5.109 0 8.571 3.132 8.571 8.571s-3.461 8.516-8.571 8.516h-5.494Zm5.274 15.6c4.176 0 6.978-2.472 7.032-7.032s-2.8-7.032-6.977-7.032h-3.68l-.055 14.072Zm23.169 1.483a5.643 5.643 0 0 0 3.879-1.385 4.945 4.945 0 0 0 1.571-3.9v-11.59h-3.434v11.341a2.308 2.308 0 0 1-.549 1.648 1.983 1.983 0 0 1-1.522.588 2.5 2.5 0 0 1-2.357-1.9l-2.906 1.623a5.267 5.267 0 0 0 5.318 3.577Zm20.581.038a6.513 6.513 0 0 0 4.472-1.423 4.73 4.73 0 0 0 1.6-3.73 3.9 3.9 0 0 0-1.374-3.115 12.019 12.019 0 0 0-4.434-2.055 6.461 6.461 0 0 1-2.066-.863 1.412 1.412 0 0 1-.6-1.181 1.483 1.483 0 0 1 .6-1.236 2.527 2.527 0 0 1 1.6-.467 3.115 3.115 0 0 1 3.137 2.044l2.84-1.555a5.521 5.521 0 0 0-2.236-2.659 6.686 6.686 0 0 0-3.588-.939 6.1 6.1 0 0 0-4.093 1.428 4.456 4.456 0 0 0-1.7 3.6 4.121 4.121 0 0 0 1.275 3.082 9.741 9.741 0 0 0 4.049 2.027 9.071 9.071 0 0 1 2.483 1 1.28 1.28 0 0 1 .654 1.148 1.505 1.505 0 0 1-.709 1.269 3.1 3.1 0 0 1-1.813.5 3.846 3.846 0 0 1-3.626-2.324l-2.959 1.536a5.961 5.961 0 0 0 2.467 2.873 7.549 7.549 0 0 0 4.022 1.044Z" />
  </g>
</svg>